<?xml version="1.0" encoding="UTF-8"?> <svg xmlns="http://www.w3.org/2000/svg" xmlns:xlink="http://www.w3.org/1999/xlink" version="1.1" x="0px" y="0px" width="135px" height="70px" viewBox="0 0 135 70" style="enable-background:new 0 0 135 70;" xml:space="preserve"> <style type="text/css"> .st0{fill:#E42313;} .st1{fill:#FFFFFF;} </style> <g id="monopol"> <path class="st0" d="M72.5,2c-24,0-46.7,6.2-64.2,21.7c-3.6,3.2-7.6,9.1-7.6,15.5c0,7.3,4.3,13.1,9.8,16.9 c14.2,9.7,32.3,13,50.5,13c26.1,0,50.6-6.8,68.7-25.6c1.8-1.9,7.7-9.5,2.7-18.1c-1.5-2.7-5.6-6.2-11.1-6.2c-3.4,0-6.4,1.5-8.9,3.5 c-4.6,3.7-8.1,4.4-12.4,4.8c-1.5,0.1-7.5,0.2-7.8-5.1c-0.1-1.9,1.1-3.5,2.7-4.3c2.6-1.4,4-1.4,6.7-1.4c2.8,0,5-2.3,5-5.1 c0-2.3-1.4-4.1-3.5-4.9C96.5,4.2,83.1,2,72.5,2"></path> <path class="st1" d="M42.2,44.9c-1.9,0-3.5-1.6-3.5-3.6c0-2,1.5-3.6,3.5-3.6c1.9,0,3.5,1.6,3.5,3.6C45.6,43.2,44.1,44.9,42.2,44.9 M42.3,33.4c-4.4,0-8,3.4-8,7.7c0,4.2,3.6,7.6,8,7.6c4.4,0,8-3.4,8-7.6C50.2,36.8,46.7,33.4,42.3,33.4"></path> <polygon class="st1" points="34.7,33.8 30.9,33.8 26.7,41.7 22.5,33.8 18.8,33.8 18.8,48.5 22.9,48.5 22.9,41.9 26.7,48.5 30.4,41.9 30.4,48.5 34.7,48.5 "></polygon> <path class="st1" d="M85.6,39.8h-1.9c0,0,0.2,0.1,0.2,0.1v-3.4c0,0,1.8,0,1.8,0c0.9,0,1.4,0.7,1.4,1.6C87.2,39,86.5,39.8,85.6,39.8 M87.1,33.7l-7.5,0v14.8h3.6v-5.6H87c2.6,0,4.3-2.2,4.3-4.7C91.3,35.7,89.7,33.7,87.1,33.7"></path> <path class="st1" d="M117.4,35.5h0.3c0.1,0,0.2-0.1,0.2-0.2c0-0.1-0.1-0.2-0.2-0.2h-0.3V35.5z M117,34.8h0.8c0.3,0,0.5,0.1,0.5,0.4 c0,0.2-0.1,0.3-0.2,0.4v0c0.2,0,0.2,0.2,0.2,0.4c0,0.1,0,0.3,0.1,0.3h-0.4c0-0.1,0-0.2,0-0.2c0-0.2,0-0.3-0.2-0.3h-0.3v0.6H117 V34.8z"></path> <path class="st1" d="M117.6,36.8c-0.7,0-1.2-0.5-1.2-1.2s0.5-1.2,1.2-1.2c0.7,0,1.2,0.5,1.2,1.2S118.2,36.8,117.6,36.8 M117.6,34 c-0.9,0-1.5,0.7-1.5,1.5s0.7,1.5,1.5,1.5c0.9,0,1.5-0.7,1.5-1.5S118.4,34,117.6,34"></path> <polygon class="st1" points="64.4,33.7 64.2,33.7 60.3,33.7 60.3,33.7 60.3,41.7 53.5,33.7 49.7,33.7 49.7,48.4 53.6,48.4 53.7,48.4 53.7,40.9 60.5,48.4 64.4,48.4 "></polygon> <path class="st1" d="M71.9,44.9c-1.9,0-3.5-1.6-3.5-3.6c0-2,1.5-3.6,3.5-3.6c1.9,0,3.5,1.6,3.5,3.6C75.3,43.2,73.8,44.9,71.9,44.9 M71.9,33.4c-4.4,0-8,3.4-8,7.7c0,4.2,3.6,7.6,8,7.6c4.4,0,8-3.4,8-7.6C79.9,36.8,76.3,33.4,71.9,33.4"></path> <polygon class="st1" points="109.4,45 109.4,33.7 105.4,33.7 105.4,48.4 115.4,48.4 115.4,45 "></polygon> <path class="st1" d="M97.9,44.8c-1.9,0-3.5-1.6-3.5-3.6c0-2,1.5-3.6,3.5-3.6c1.9,0,3.5,1.6,3.5,3.6C101.4,43.2,99.9,44.8,97.9,44.8 M98,33.3c-4.4,0-8,3.4-8,7.7c0,4.2,3.6,7.6,8,7.6c4.4,0,8-3.4,8-7.6C106,36.7,102.4,33.3,98,33.3"></path> <path class="st1" d="M9.9,39.6c0-4.1,2.7-8.6,5.3-11c0.6-0.5,1.1-1,1.7-1.6c-1.3,0.9-2.5,1.8-3.7,2.8C10.6,32,7.5,36.3,7.5,40 c0,5.4,4.7,8.8,7.4,10.5c0.5,0.3,1,0.6,1.5,0.9C13.8,49.3,9.9,45.4,9.9,39.6"></path> <path class="st1" d="M128,29.3c-0.4-0.8-1.7-2.3-3.6-2.9c1.2,0.8,2,1.9,2.2,2.6c0.9,2.2,1.1,4.3,0.5,6.6c-0.5,1.9-1.8,4.7-2.3,5.4 c0.6-0.7,1.2-1.3,1.8-2c0.5-0.6,1.4-2,1.9-3.8C129.1,33.1,129,31.3,128,29.3"></path> </g> <g id="Capa_2"> </g> </svg> 